<?xml version="1.0" encoding="utf-8"?>
<svg xmlns="http://www.w3.org/2000/svg" viewBox="-56 0 328.0 488.0" role="img" aria-labelledby="title desc">
  <title id="title">Blank map of the original thirteen colonies in 1775</title>
  <desc id="desc">Simplified classroom map derived from a 1775 colonies reference, with Maine shown as part of Massachusetts and Long Island shown as part of New York.</desc>
  <rect x="-56" y="0" width="328" height="488" fill="#d9f1f2"/>
  <image class="context-map" href="/geogames/games/13-colonies/colonies-1775-context.svg?v=20260530b" x="-236.8407" y="1.1791" width="906.4959" height="624.0244" preserveAspectRatio="none"/>
  <image class="base-map" href="/geogames/games/13-colonies/colonies-1775-base-hires.png?v=20260530a" x="0" y="0" width="272" height="488" preserveAspectRatio="none"/>
  <path class="landmass" d="M 24.0 400.8 L 26.4 400.0 L 30.4 392.0 L 30.4 386.4 L 32.0 384.8 L 30.4 383.2 L 31.2 380.0 L 36.0 374.4 L 37.6 368.0 L 40.8 364.8 L 42.4 364.8 L 40.0 367.2 L 40.0 371.2 L 50.4 380.0 L 50.4 381.6 L 54.4 384.8 L 56.8 389.6 L 60.0 390.4 L 63.2 394.4 L 68.8 396.0 L 68.8 397.6 L 71.2 398.4 L 80.8 408.0 L 80.8 414.4 L 82.4 417.6 L 84.8 418.4 L 88.0 425.6 L 94.4 428.8 L 93.6 431.2 L 91.2 432.8 L 91.2 440.0 L 88.8 444.8 L 88.8 451.2 L 88.0 451.2 L 88.0 459.2 L 80.8 459.2 L 80.8 458.4 L 76.8 459.2 L 76.8 464.0 L 78.4 467.2 L 76.0 468.8 L 73.6 466.4 L 71.2 460.8 L 69.6 460.8 L 68.8 459.2 L 65.6 457.6 L 63.2 457.6 L 57.6 452.0 L 54.4 451.2 L 52.8 448.8 L 49.6 447.2 L 47.2 440.8 L 45.6 440.0 L 45.6 437.6 L 43.2 436.8 L 37.6 431.2 L 36.0 424.0 L 34.4 424.0 L 28.0 417.6 L 27.2 413.6 L 24.8 412.0 L 24.0 401.6 Z M 42.4 368.0 L 44.8 366.4 L 45.6 364.8 L 44.8 363.2 L 47.2 362.4 L 48.8 360.0 L 56.8 360.0 L 57.6 358.4 L 60.0 358.4 L 60.0 357.6 L 80.0 357.6 L 80.0 358.4 L 84.8 359.2 L 84.8 360.8 L 87.2 363.2 L 91.2 363.2 L 94.4 360.8 L 107.2 360.8 L 110.4 362.4 L 111.2 364.0 L 112.8 364.0 L 118.4 370.4 L 120.0 370.4 L 121.6 372.8 L 123.2 372.8 L 124.0 374.4 L 125.6 374.4 L 127.2 376.8 L 128.8 376.8 L 131.2 379.2 L 129.6 381.6 L 127.2 382.4 L 126.4 385.6 L 123.2 387.2 L 122.4 388.8 L 123.2 395.2 L 120.0 401.6 L 115.2 402.4 L 113.6 404.0 L 112.8 408.0 L 110.4 408.8 L 109.6 410.4 L 110.4 412.8 L 108.8 414.4 L 105.6 416.0 L 100.8 416.0 L 100.0 417.6 L 100.8 421.6 L 94.4 426.4 L 88.8 422.4 L 87.2 417.6 L 84.0 415.2 L 83.2 407.2 L 81.6 406.4 L 81.6 404.8 L 79.2 404.0 L 79.2 402.4 L 74.4 397.6 L 72.8 397.6 L 69.6 393.6 L 65.6 392.8 L 61.6 388.0 L 58.4 387.2 L 56.0 382.4 L 52.8 380.8 L 51.2 376.8 L 48.0 375.2 L 42.4 368.8 Z M 51.2 356.0 L 52.8 352.8 L 55.2 351.2 L 56.0 348.0 L 58.4 346.4 L 58.4 344.8 L 67.2 341.6 L 68.8 337.6 L 72.8 334.4 L 76.0 321.6 L 101.6 320.8 L 106.4 318.4 L 115.2 317.6 L 120.8 314.4 L 141.6 312.8 L 145.6 310.4 L 153.6 310.4 L 157.6 308.0 L 164.8 308.0 L 164.0 311.2 L 165.6 312.0 L 167.2 316.0 L 165.6 316.0 L 164.0 319.2 L 161.6 319.2 L 160.8 321.6 L 155.2 323.2 L 155.2 327.2 L 159.2 328.0 L 160.0 325.6 L 164.0 327.2 L 165.6 324.8 L 168.0 325.6 L 169.6 329.6 L 172.8 328.0 L 172.8 325.6 L 175.2 327.2 L 175.2 328.8 L 171.2 332.8 L 170.4 336.8 L 158.4 336.8 L 157.6 337.6 L 157.6 340.0 L 159.2 341.6 L 161.6 341.6 L 160.8 349.6 L 164.8 349.6 L 164.8 348.0 L 167.2 348.0 L 168.0 350.4 L 166.4 351.2 L 166.4 352.8 L 161.6 353.6 L 158.4 355.2 L 157.6 356.8 L 152.8 358.4 L 148.8 362.4 L 147.2 362.4 L 146.4 367.2 L 144.8 367.2 L 144.0 368.8 L 142.4 378.4 L 135.2 377.6 L 134.4 379.2 L 132.8 379.2 L 132.0 376.0 L 130.4 376.0 L 122.4 368.8 L 118.4 367.2 L 115.2 362.4 L 112.0 361.6 L 108.8 358.4 L 93.6 358.4 L 88.8 360.8 L 85.6 356.8 L 77.6 355.2 L 77.6 354.4 L 76.0 355.2 L 59.2 355.2 L 55.2 357.6 L 51.2 357.6 L 51.2 356.8 Z M 76.8 317.6 L 83.2 312.0 L 83.2 310.4 L 85.6 308.8 L 87.2 305.6 L 87.2 297.6 L 88.8 296.8 L 88.8 288.0 L 87.2 285.6 L 87.2 276.0 L 88.0 276.0 L 87.2 262.4 L 89.6 260.8 L 90.4 256.0 L 92.8 254.4 L 95.2 254.4 L 100.0 248.8 L 101.6 248.8 L 104.8 245.6 L 111.2 246.4 L 112.8 244.0 L 118.4 244.0 L 120.0 246.4 L 124.0 248.0 L 132.0 256.8 L 134.4 257.6 L 132.8 263.2 L 135.2 266.4 L 140.8 268.8 L 140.8 270.4 L 143.2 272.8 L 140.8 275.2 L 148.0 280.0 L 153.6 280.8 L 153.6 284.0 L 148.0 282.4 L 146.4 283.2 L 146.4 284.8 L 149.6 287.2 L 152.0 287.2 L 152.0 290.4 L 156.0 291.2 L 153.6 292.8 L 153.6 296.8 L 157.6 300.0 L 153.6 300.8 L 153.6 304.0 L 154.4 304.8 L 158.4 304.8 L 160.0 303.2 L 161.6 304.0 L 161.6 305.6 L 156.0 305.6 L 152.0 308.0 L 150.4 307.2 L 144.0 308.0 L 143.2 309.6 L 140.8 309.6 L 140.8 310.4 L 122.4 311.2 L 120.0 312.8 L 116.8 312.8 L 113.6 315.2 L 108.0 315.2 L 108.0 316.0 L 100.0 317.6 L 100.0 318.4 L 77.6 318.4 L 77.6 319.2 L 76.8 318.4 Z M 94.4 221.6 L 96.0 218.4 L 99.2 216.0 L 99.2 209.6 L 101.6 207.2 L 101.6 204.0 L 107.2 200.0 L 107.2 192.0 L 108.0 192.0 L 108.0 188.8 L 109.6 188.0 L 109.6 186.4 L 124.0 185.6 L 124.8 184.0 L 127.2 184.0 L 127.2 183.2 L 136.8 183.2 L 136.8 182.4 L 142.4 181.6 L 144.8 180.0 L 149.6 180.0 L 152.0 183.2 L 156.0 184.8 L 160.8 189.6 L 158.4 198.4 L 157.6 198.4 L 156.8 208.0 L 166.4 217.6 L 165.6 221.6 L 163.2 221.6 L 160.0 227.2 L 156.0 227.2 L 152.0 231.2 L 139.2 233.6 L 136.8 235.2 L 120.8 236.8 L 117.6 238.4 L 103.2 239.2 L 103.2 240.0 L 97.6 240.8 L 95.2 242.4 L 94.4 240.8 L 95.2 240.8 L 95.2 236.0 L 96.0 236.0 L 96.0 228.8 L 94.4 227.2 L 94.4 222.4 Z M 115.2 182.4 L 117.6 180.0 L 124.0 180.0 L 125.6 178.4 L 126.4 174.4 L 128.0 172.8 L 128.0 169.6 L 129.6 168.8 L 131.2 164.8 L 134.4 161.6 L 139.2 160.0 L 140.0 157.6 L 142.4 156.0 L 142.4 154.4 L 146.4 150.4 L 146.4 148.8 L 148.0 148.8 L 149.6 145.6 L 151.2 144.8 L 152.8 131.2 L 156.0 128.8 L 159.2 128.8 L 160.0 127.2 L 161.6 127.2 L 165.6 131.2 L 166.4 135.2 L 168.0 136.8 L 173.6 136.8 L 173.6 139.2 L 176.0 141.6 L 176.8 150.4 L 177.6 150.4 L 177.6 172.0 L 180.0 176.8 L 180.0 187.2 L 181.6 188.0 L 180.0 192.0 L 182.4 196.0 L 182.4 200.0 L 180.0 199.2 L 178.4 194.4 L 176.0 192.0 L 171.2 191.2 L 166.4 188.0 L 162.4 188.0 L 158.4 183.2 L 155.2 182.4 L 151.2 177.6 L 148.8 177.6 L 148.8 176.8 L 138.4 179.2 L 136.0 180.8 L 125.6 180.8 L 125.6 181.6 L 123.2 181.6 L 122.4 183.2 L 115.2 183.2 Z M 117.6 240.8 L 121.6 240.0 L 121.6 239.2 L 137.6 237.6 L 137.6 236.8 L 148.0 235.2 L 151.2 233.6 L 151.2 237.6 L 155.2 241.6 L 155.2 244.8 L 156.0 244.8 L 157.6 260.0 L 160.0 261.6 L 162.4 261.6 L 163.2 260.0 L 168.0 260.0 L 168.0 259.2 L 172.8 258.4 L 172.8 264.0 L 173.6 264.0 L 173.6 268.8 L 170.4 270.4 L 170.4 274.4 L 168.8 275.2 L 168.0 281.6 L 165.6 285.6 L 165.6 294.4 L 164.8 294.4 L 164.0 293.6 L 164.0 283.2 L 166.4 279.2 L 166.4 276.8 L 163.2 275.2 L 163.2 272.0 L 161.6 269.6 L 160.0 269.6 L 159.2 268.0 L 154.4 268.0 L 152.8 266.4 L 153.6 261.6 L 152.0 260.8 L 152.0 259.2 L 153.6 256.0 L 152.0 256.0 L 152.0 254.4 L 153.6 252.0 L 150.4 249.6 L 150.4 247.2 L 153.6 245.6 L 153.6 242.4 L 152.8 242.4 L 152.8 241.6 L 152.0 241.6 L 151.2 240.0 L 148.0 240.0 L 148.0 240.8 L 147.2 240.8 L 147.2 246.4 L 144.8 246.4 L 144.8 247.2 L 144.0 247.2 L 144.0 249.6 L 142.4 250.4 L 142.4 252.8 L 143.2 252.8 L 143.2 253.6 L 144.8 253.6 L 144.8 264.8 L 145.6 264.8 L 145.6 265.6 L 144.0 266.4 L 144.0 268.8 L 144.8 268.8 L 144.8 270.4 L 144.0 270.4 L 144.0 269.6 L 143.2 269.6 L 143.2 268.0 L 142.4 268.0 L 142.4 267.2 L 141.6 267.2 L 140.8 265.6 L 139.2 265.6 L 139.2 264.8 L 137.6 264.8 L 137.6 264.0 L 136.0 264.0 L 136.0 260.0 L 136.8 260.0 L 136.8 256.8 L 136.0 256.8 L 136.0 256.0 L 135.2 256.0 L 135.2 255.2 L 134.4 255.2 L 134.4 254.4 L 133.6 254.4 L 133.6 253.6 L 132.8 253.6 L 132.8 252.8 L 132.0 252.8 L 132.0 252.0 L 131.2 252.0 L 131.2 251.2 L 130.4 251.2 L 130.4 250.4 L 129.6 250.4 L 129.6 249.6 L 128.8 249.6 L 128.0 248.0 L 126.4 248.0 L 126.4 247.2 L 125.6 247.2 L 125.6 246.4 L 124.8 246.4 L 124.0 244.8 L 122.4 244.8 L 122.4 244.0 L 121.6 244.0 L 120.8 242.4 L 119.2 242.4 L 119.2 241.6 L 117.6 241.6 Z M 158.4 236.0 L 160.0 236.0 L 160.0 235.2 L 160.8 235.2 L 160.8 228.8 L 161.6 228.8 L 161.6 228.0 L 163.2 227.2 L 163.2 225.6 L 164.0 225.6 L 164.0 224.0 L 166.4 224.0 L 166.4 223.2 L 168.0 222.4 L 168.0 220.8 L 168.8 220.8 L 168.8 216.0 L 168.0 216.0 L 168.0 215.2 L 167.2 215.2 L 167.2 214.4 L 166.4 214.4 L 166.4 213.6 L 165.6 213.6 L 165.6 212.8 L 164.8 212.8 L 164.8 212.0 L 164.0 212.0 L 164.0 211.2 L 163.2 211.2 L 163.2 210.4 L 162.4 210.4 L 161.6 208.8 L 160.0 208.8 L 160.0 207.2 L 159.2 207.2 L 159.2 204.8 L 160.0 204.8 L 160.0 199.2 L 160.8 199.2 L 160.8 196.8 L 161.6 196.8 L 161.6 194.4 L 162.4 194.4 L 162.4 191.2 L 163.2 191.2 L 163.2 190.4 L 165.6 190.4 L 165.6 191.2 L 167.2 191.2 L 167.2 192.0 L 168.8 192.0 L 168.8 192.8 L 170.4 192.8 L 170.4 193.6 L 173.6 193.6 L 173.6 194.4 L 174.4 194.4 L 174.4 195.2 L 175.2 195.2 L 175.2 196.0 L 176.8 196.8 L 176.8 199.2 L 177.6 199.2 L 177.6 200.8 L 178.4 200.8 L 178.4 206.4 L 177.6 206.4 L 177.6 208.8 L 176.8 208.8 L 176.8 213.6 L 177.6 213.6 L 178.4 215.2 L 180.0 215.2 L 180.0 216.8 L 180.8 216.8 L 180.8 220.8 L 181.6 220.8 L 181.6 222.4 L 182.4 222.4 L 182.4 228.8 L 181.6 228.8 L 181.6 231.2 L 180.8 231.2 L 180.8 234.4 L 180.0 234.4 L 180.0 236.0 L 179.2 236.0 L 179.2 236.8 L 178.4 236.8 L 178.4 238.4 L 177.6 238.4 L 177.6 240.8 L 176.8 240.8 L 176.8 244.0 L 176.0 244.0 L 176.0 245.6 L 175.2 245.6 L 175.2 248.8 L 173.6 248.8 L 173.6 247.2 L 172.8 247.2 L 172.0 245.6 L 169.6 245.6 L 169.6 244.8 L 168.0 244.8 L 168.0 244.0 L 165.6 244.0 L 165.6 243.2 L 164.8 243.2 L 164.8 242.4 L 164.0 242.4 L 164.0 241.6 L 163.2 241.6 L 162.4 240.0 L 160.8 240.0 L 160.8 239.2 L 160.0 239.2 L 160.0 237.6 L 158.4 236.8 Z M 158.4 244.0 L 159.2 244.0 L 159.2 244.8 L 160.0 244.8 L 160.0 246.4 L 160.8 246.4 L 160.8 247.2 L 161.6 247.2 L 161.6 248.0 L 162.4 248.0 L 162.4 249.6 L 163.2 249.6 L 163.2 251.2 L 164.0 251.2 L 164.0 252.0 L 164.8 252.0 L 164.8 252.8 L 165.6 252.8 L 165.6 253.6 L 166.4 253.6 L 166.4 254.4 L 167.2 254.4 L 167.2 255.2 L 168.0 255.2 L 168.0 256.0 L 168.8 256.0 L 168.8 256.8 L 165.6 256.8 L 165.6 257.6 L 162.4 257.6 L 162.4 258.4 L 160.0 258.4 L 160.0 253.6 L 159.2 253.6 L 159.2 250.4 L 158.4 250.4 L 158.4 244.8 Z M 173.6 127.2 L 176.8 124.8 L 178.4 121.6 L 180.0 121.6 L 182.4 118.4 L 186.4 116.8 L 186.4 109.6 L 189.6 106.4 L 191.2 100.8 L 193.6 99.2 L 196.8 87.2 L 199.2 85.6 L 200.8 91.2 L 202.4 92.8 L 202.4 96.8 L 203.2 96.8 L 203.2 100.0 L 204.8 103.2 L 205.6 113.6 L 208.0 116.8 L 208.8 121.6 L 211.2 126.4 L 212.8 127.2 L 212.8 128.8 L 216.8 132.0 L 218.4 135.2 L 220.8 136.0 L 220.8 141.6 L 212.8 141.6 L 204.8 146.4 L 202.4 146.4 L 200.0 148.0 L 195.2 148.0 L 191.2 150.4 L 187.2 150.4 L 185.6 152.0 L 180.0 152.8 L 178.4 140.8 L 176.0 137.6 L 176.8 132.0 L 173.6 129.6 L 173.6 128.0 Z M 180.0 155.2 L 184.8 155.2 L 186.4 153.6 L 192.0 152.8 L 193.6 151.2 L 204.0 149.6 L 214.4 144.0 L 220.0 144.0 L 219.2 147.2 L 220.8 149.6 L 222.4 149.6 L 220.0 154.4 L 221.6 161.6 L 223.2 162.4 L 225.6 161.6 L 226.4 163.2 L 228.0 163.2 L 228.8 167.2 L 231.2 169.6 L 238.4 168.8 L 234.4 173.6 L 232.0 174.4 L 232.0 178.4 L 231.2 178.4 L 231.2 172.8 L 228.8 169.6 L 227.2 171.2 L 228.0 174.4 L 223.2 176.8 L 222.4 173.6 L 220.0 172.8 L 219.2 167.2 L 216.8 166.4 L 212.0 161.6 L 209.6 161.6 L 208.0 163.2 L 200.0 163.2 L 196.8 165.6 L 190.4 165.6 L 189.6 168.0 L 184.8 168.0 L 183.2 169.6 L 180.0 169.6 L 180.0 156.0 Z M 180.8 172.8 L 183.2 172.8 L 183.2 172.0 L 184.8 172.0 L 185.6 170.4 L 188.8 170.4 L 188.8 171.2 L 190.4 171.2 L 190.4 170.4 L 192.0 170.4 L 192.0 168.0 L 197.6 168.0 L 197.6 167.2 L 199.2 167.2 L 199.2 166.4 L 200.8 166.4 L 200.8 165.6 L 204.0 165.6 L 204.0 166.4 L 204.8 166.4 L 204.8 168.0 L 205.6 168.0 L 205.6 170.4 L 206.4 170.4 L 206.4 172.8 L 207.2 172.8 L 207.2 177.6 L 208.0 177.6 L 208.0 180.8 L 208.8 180.8 L 209.6 182.4 L 212.8 182.4 L 212.8 183.2 L 213.6 183.2 L 212.8 184.8 L 205.6 184.8 L 205.6 185.6 L 204.0 185.6 L 204.0 186.4 L 202.4 186.4 L 202.4 187.2 L 201.6 187.2 L 200.8 188.8 L 196.8 188.8 L 196.8 189.6 L 195.2 189.6 L 195.2 188.8 L 193.6 188.8 L 193.6 189.6 L 192.0 189.6 L 192.0 191.2 L 191.2 191.2 L 191.2 192.0 L 190.4 192.0 L 189.6 193.6 L 188.0 193.6 L 188.0 194.4 L 187.2 194.4 L 186.4 196.0 L 184.8 196.0 L 184.8 196.8 L 184.0 196.8 L 184.0 195.2 L 184.8 195.2 L 184.8 194.4 L 184.0 194.4 L 184.0 192.8 L 183.2 192.8 L 183.2 189.6 L 184.0 189.6 L 184.0 187.2 L 182.4 186.4 L 182.4 175.2 L 181.6 175.2 L 181.6 173.6 L 180.8 173.6 Z M 181.6 204.0 L 184.0 204.8 L 186.4 201.6 L 190.4 201.6 L 193.6 197.6 L 199.2 196.8 L 204.8 193.6 L 208.8 194.4 L 204.0 199.2 L 193.6 201.6 L 192.0 204.8 L 188.8 205.6 L 186.4 208.0 L 181.6 208.0 L 181.6 204.8 Z M 200.0 64.0 L 202.4 61.6 L 203.2 57.6 L 204.0 57.6 L 204.0 55.2 L 203.2 55.2 L 204.0 50.4 L 207.2 48.0 L 207.2 45.6 L 208.0 45.6 L 208.8 35.2 L 210.4 34.4 L 211.2 32.0 L 212.8 32.0 L 215.2 29.6 L 215.2 24.8 L 218.4 23.2 L 225.6 14.4 L 232.0 13.6 L 232.0 17.6 L 234.4 20.8 L 235.2 26.4 L 238.4 31.2 L 238.4 37.6 L 240.0 38.4 L 240.0 44.8 L 242.4 47.2 L 243.2 53.6 L 245.6 55.2 L 245.6 59.2 L 246.4 59.2 L 246.4 62.4 L 248.0 63.2 L 248.0 66.4 L 249.6 68.8 L 254.4 68.8 L 254.4 72.8 L 256.0 73.6 L 256.0 75.2 L 257.6 76.8 L 260.0 76.8 L 264.0 81.6 L 265.6 81.6 L 265.6 85.6 L 259.2 92.0 L 259.2 93.6 L 256.8 93.6 L 255.2 96.8 L 253.6 95.2 L 250.4 95.2 L 247.2 98.4 L 246.4 100.8 L 242.4 97.6 L 240.0 99.2 L 238.4 102.4 L 238.4 112.8 L 236.0 113.6 L 235.2 116.0 L 228.8 116.8 L 224.8 120.0 L 224.0 121.6 L 224.8 126.4 L 224.0 126.4 L 222.4 133.6 L 220.8 133.6 L 212.8 124.0 L 210.4 116.0 L 208.0 112.0 L 205.6 94.4 L 204.8 94.4 L 204.8 92.0 L 203.2 90.4 L 203.2 88.0 L 200.8 83.2 L 200.0 64.8 Z M 207.2 165.6 L 208.8 165.6 L 208.8 164.8 L 212.0 164.8 L 212.0 165.6 L 213.6 165.6 L 213.6 166.4 L 214.4 166.4 L 214.4 168.0 L 215.2 168.0 L 215.2 168.8 L 216.8 168.8 L 216.8 171.2 L 217.6 171.2 L 217.6 172.0 L 218.4 172.0 L 218.4 172.8 L 217.6 172.8 L 217.6 179.2 L 216.8 179.2 L 216.8 181.6 L 215.2 181.6 L 215.2 180.8 L 212.8 180.8 L 212.8 180.0 L 211.2 180.0 L 211.2 179.2 L 210.4 179.2 L 210.4 174.4 L 209.6 174.4 L 209.6 171.2 L 208.8 171.2 L 208.8 169.6 L 208.0 169.6 L 208.0 167.2 L 207.2 167.2 L 207.2 166.4 Z"/>
  <path id="MA" d="M 180.0 155.2 L 184.8 155.2 L 186.4 153.6 L 192.0 152.8 L 193.6 151.2 L 204.0 149.6 L 214.4 144.0 L 220.0 144.0 L 219.2 147.2 L 220.8 149.6 L 222.4 149.6 L 220.0 154.4 L 221.6 161.6 L 223.2 162.4 L 225.6 161.6 L 226.4 163.2 L 228.0 163.2 L 228.8 167.2 L 231.2 169.6 L 238.4 168.8 L 234.4 173.6 L 232.0 174.4 L 232.0 178.4 L 231.2 178.4 L 231.2 172.8 L 228.8 169.6 L 227.2 171.2 L 228.0 174.4 L 223.2 176.8 L 222.4 173.6 L 220.0 172.8 L 219.2 167.2 L 216.8 166.4 L 212.0 161.6 L 209.6 161.6 L 208.0 163.2 L 200.0 163.2 L 196.8 165.6 L 190.4 165.6 L 189.6 168.0 L 184.8 168.0 L 183.2 169.6 L 180.0 169.6 L 180.0 156.0 Z M 200.0 64.0 L 202.4 61.6 L 203.2 57.6 L 204.0 57.6 L 204.0 55.2 L 203.2 55.2 L 204.0 50.4 L 207.2 48.0 L 207.2 45.6 L 208.0 45.6 L 208.8 35.2 L 210.4 34.4 L 211.2 32.0 L 212.8 32.0 L 215.2 29.6 L 215.2 24.8 L 218.4 23.2 L 225.6 14.4 L 232.0 13.6 L 232.0 17.6 L 234.4 20.8 L 235.2 26.4 L 238.4 31.2 L 238.4 37.6 L 240.0 38.4 L 240.0 44.8 L 242.4 47.2 L 243.2 53.6 L 245.6 55.2 L 245.6 59.2 L 246.4 59.2 L 246.4 62.4 L 248.0 63.2 L 248.0 66.4 L 249.6 68.8 L 254.4 68.8 L 254.4 72.8 L 256.0 73.6 L 256.0 75.2 L 257.6 76.8 L 260.0 76.8 L 264.0 81.6 L 265.6 81.6 L 265.6 85.6 L 259.2 92.0 L 259.2 93.6 L 256.8 93.6 L 255.2 96.8 L 253.6 95.2 L 250.4 95.2 L 247.2 98.4 L 246.4 100.8 L 242.4 97.6 L 240.0 99.2 L 238.4 102.4 L 238.4 112.8 L 236.0 113.6 L 235.2 116.0 L 228.8 116.8 L 224.8 120.0 L 224.0 121.6 L 224.8 126.4 L 224.0 126.4 L 222.4 133.6 L 220.8 133.6 L 212.8 124.0 L 210.4 116.0 L 208.0 112.0 L 205.6 94.4 L 204.8 94.4 L 204.8 92.0 L 203.2 90.4 L 203.2 88.0 L 200.8 83.2 L 200.0 64.8 Z"/>
  <path id="NH" d="M 173.6 127.2 L 176.8 124.8 L 178.4 121.6 L 180.0 121.6 L 182.4 118.4 L 186.4 116.8 L 186.4 109.6 L 189.6 106.4 L 191.2 100.8 L 193.6 99.2 L 196.8 87.2 L 199.2 85.6 L 200.8 91.2 L 202.4 92.8 L 202.4 96.8 L 203.2 96.8 L 203.2 100.0 L 204.8 103.2 L 205.6 113.6 L 208.0 116.8 L 208.8 121.6 L 211.2 126.4 L 212.8 127.2 L 212.8 128.8 L 216.8 132.0 L 218.4 135.2 L 220.8 136.0 L 220.8 141.6 L 212.8 141.6 L 204.8 146.4 L 202.4 146.4 L 200.0 148.0 L 195.2 148.0 L 191.2 150.4 L 187.2 150.4 L 185.6 152.0 L 180.0 152.8 L 178.4 140.8 L 176.0 137.6 L 176.8 132.0 L 173.6 129.6 L 173.6 128.0 Z"/>
  <path id="RI" d="M 207.2 165.6 L 208.8 165.6 L 208.8 164.8 L 212.0 164.8 L 212.0 165.6 L 213.6 165.6 L 213.6 166.4 L 214.4 166.4 L 214.4 168.0 L 215.2 168.0 L 215.2 168.8 L 216.8 168.8 L 216.8 171.2 L 217.6 171.2 L 217.6 172.0 L 218.4 172.0 L 218.4 172.8 L 217.6 172.8 L 217.6 179.2 L 216.8 179.2 L 216.8 181.6 L 215.2 181.6 L 215.2 180.8 L 212.8 180.8 L 212.8 180.0 L 211.2 180.0 L 211.2 179.2 L 210.4 179.2 L 210.4 174.4 L 209.6 174.4 L 209.6 171.2 L 208.8 171.2 L 208.8 169.6 L 208.0 169.6 L 208.0 167.2 L 207.2 167.2 L 207.2 166.4 Z"/>
  <path id="CT" d="M 180.8 172.8 L 183.2 172.8 L 183.2 172.0 L 184.8 172.0 L 185.6 170.4 L 188.8 170.4 L 188.8 171.2 L 190.4 171.2 L 190.4 170.4 L 192.0 170.4 L 192.0 168.0 L 197.6 168.0 L 197.6 167.2 L 199.2 167.2 L 199.2 166.4 L 200.8 166.4 L 200.8 165.6 L 204.0 165.6 L 204.0 166.4 L 204.8 166.4 L 204.8 168.0 L 205.6 168.0 L 205.6 170.4 L 206.4 170.4 L 206.4 172.8 L 207.2 172.8 L 207.2 177.6 L 208.0 177.6 L 208.0 180.8 L 208.8 180.8 L 209.6 182.4 L 212.8 182.4 L 212.8 183.2 L 213.6 183.2 L 212.8 184.8 L 205.6 184.8 L 205.6 185.6 L 204.0 185.6 L 204.0 186.4 L 202.4 186.4 L 202.4 187.2 L 201.6 187.2 L 200.8 188.8 L 196.8 188.8 L 196.8 189.6 L 195.2 189.6 L 195.2 188.8 L 193.6 188.8 L 193.6 189.6 L 192.0 189.6 L 192.0 191.2 L 191.2 191.2 L 191.2 192.0 L 190.4 192.0 L 189.6 193.6 L 188.0 193.6 L 188.0 194.4 L 187.2 194.4 L 186.4 196.0 L 184.8 196.0 L 184.8 196.8 L 184.0 196.8 L 184.0 195.2 L 184.8 195.2 L 184.8 194.4 L 184.0 194.4 L 184.0 192.8 L 183.2 192.8 L 183.2 189.6 L 184.0 189.6 L 184.0 187.2 L 182.4 186.4 L 182.4 175.2 L 181.6 175.2 L 181.6 173.6 L 180.8 173.6 Z"/>
  <path id="NY" d="M 115.2 182.4 L 117.6 180.0 L 124.0 180.0 L 125.6 178.4 L 126.4 174.4 L 128.0 172.8 L 128.0 169.6 L 129.6 168.8 L 131.2 164.8 L 134.4 161.6 L 139.2 160.0 L 140.0 157.6 L 142.4 156.0 L 142.4 154.4 L 146.4 150.4 L 146.4 148.8 L 148.0 148.8 L 149.6 145.6 L 151.2 144.8 L 152.8 131.2 L 156.0 128.8 L 159.2 128.8 L 160.0 127.2 L 161.6 127.2 L 165.6 131.2 L 166.4 135.2 L 168.0 136.8 L 173.6 136.8 L 173.6 139.2 L 176.0 141.6 L 176.8 150.4 L 177.6 150.4 L 177.6 172.0 L 180.0 176.8 L 180.0 187.2 L 181.6 188.0 L 180.0 192.0 L 182.4 196.0 L 182.4 200.0 L 180.0 199.2 L 178.4 194.4 L 176.0 192.0 L 171.2 191.2 L 166.4 188.0 L 162.4 188.0 L 158.4 183.2 L 155.2 182.4 L 151.2 177.6 L 148.8 177.6 L 148.8 176.8 L 138.4 179.2 L 136.0 180.8 L 125.6 180.8 L 125.6 181.6 L 123.2 181.6 L 122.4 183.2 L 115.2 183.2 Z M 181.6 204.0 L 184.0 204.8 L 186.4 201.6 L 190.4 201.6 L 193.6 197.6 L 199.2 196.8 L 204.8 193.6 L 208.8 194.4 L 204.0 199.2 L 193.6 201.6 L 192.0 204.8 L 188.8 205.6 L 186.4 208.0 L 181.6 208.0 L 181.6 204.8 Z"/>
  <path id="NJ" d="M 158.4 236.0 L 160.0 236.0 L 160.0 235.2 L 160.8 235.2 L 160.8 228.8 L 161.6 228.8 L 161.6 228.0 L 163.2 227.2 L 163.2 225.6 L 164.0 225.6 L 164.0 224.0 L 166.4 224.0 L 166.4 223.2 L 168.0 222.4 L 168.0 220.8 L 168.8 220.8 L 168.8 216.0 L 168.0 216.0 L 168.0 215.2 L 167.2 215.2 L 167.2 214.4 L 166.4 214.4 L 166.4 213.6 L 165.6 213.6 L 165.6 212.8 L 164.8 212.8 L 164.8 212.0 L 164.0 212.0 L 164.0 211.2 L 163.2 211.2 L 163.2 210.4 L 162.4 210.4 L 161.6 208.8 L 160.0 208.8 L 160.0 207.2 L 159.2 207.2 L 159.2 204.8 L 160.0 204.8 L 160.0 199.2 L 160.8 199.2 L 160.8 196.8 L 161.6 196.8 L 161.6 194.4 L 162.4 194.4 L 162.4 191.2 L 163.2 191.2 L 163.2 190.4 L 165.6 190.4 L 165.6 191.2 L 167.2 191.2 L 167.2 192.0 L 168.8 192.0 L 168.8 192.8 L 170.4 192.8 L 170.4 193.6 L 173.6 193.6 L 173.6 194.4 L 174.4 194.4 L 174.4 195.2 L 175.2 195.2 L 175.2 196.0 L 176.8 196.8 L 176.8 199.2 L 177.6 199.2 L 177.6 200.8 L 178.4 200.8 L 178.4 206.4 L 177.6 206.4 L 177.6 208.8 L 176.8 208.8 L 176.8 213.6 L 177.6 213.6 L 178.4 215.2 L 180.0 215.2 L 180.0 216.8 L 180.8 216.8 L 180.8 220.8 L 181.6 220.8 L 181.6 222.4 L 182.4 222.4 L 182.4 228.8 L 181.6 228.8 L 181.6 231.2 L 180.8 231.2 L 180.8 234.4 L 180.0 234.4 L 180.0 236.0 L 179.2 236.0 L 179.2 236.8 L 178.4 236.8 L 178.4 238.4 L 177.6 238.4 L 177.6 240.8 L 176.8 240.8 L 176.8 244.0 L 176.0 244.0 L 176.0 245.6 L 175.2 245.6 L 175.2 248.8 L 173.6 248.8 L 173.6 247.2 L 172.8 247.2 L 172.0 245.6 L 169.6 245.6 L 169.6 244.8 L 168.0 244.8 L 168.0 244.0 L 165.6 244.0 L 165.6 243.2 L 164.8 243.2 L 164.8 242.4 L 164.0 242.4 L 164.0 241.6 L 163.2 241.6 L 162.4 240.0 L 160.8 240.0 L 160.8 239.2 L 160.0 239.2 L 160.0 237.6 L 158.4 236.8 Z"/>
  <path id="PA" d="M 94.4 221.6 L 96.0 218.4 L 99.2 216.0 L 99.2 209.6 L 101.6 207.2 L 101.6 204.0 L 107.2 200.0 L 107.2 192.0 L 108.0 192.0 L 108.0 188.8 L 109.6 188.0 L 109.6 186.4 L 124.0 185.6 L 124.8 184.0 L 127.2 184.0 L 127.2 183.2 L 136.8 183.2 L 136.8 182.4 L 142.4 181.6 L 144.8 180.0 L 149.6 180.0 L 152.0 183.2 L 156.0 184.8 L 160.8 189.6 L 158.4 198.4 L 157.6 198.4 L 156.8 208.0 L 166.4 217.6 L 165.6 221.6 L 163.2 221.6 L 160.0 227.2 L 156.0 227.2 L 152.0 231.2 L 139.2 233.6 L 136.8 235.2 L 120.8 236.8 L 117.6 238.4 L 103.2 239.2 L 103.2 240.0 L 97.6 240.8 L 95.2 242.4 L 94.4 240.8 L 95.2 240.8 L 95.2 236.0 L 96.0 236.0 L 96.0 228.8 L 94.4 227.2 L 94.4 222.4 Z"/>
  <path id="DE" d="M 156.328 228.679 L 159.684 228.323 L 159.565 234.106 L 157.544 236.734 L 159.154 239.627 L 160 243.75 L 161 247.5 L 162.5 251.25 L 165.25 254.5 L 172.376 257.286 L 168.248 258.644 L 165 259 L 162 259 L 160.102 259.498 L 157.75 255 L 157.75 250 L 156.825 245.142 L 155.971 240.498 L 152.805 237.847 L 152.628 232.318 L 156.328 228.679 Z"/>
  <path id="MD" d="M 172.00 269.75 L 172.00 270.00 L 171.50 270.00 L 171.50 270.25 L 171.25 270.25 L 171.25 270.50 L 171.00 270.50 L 171.00 271.25 L 170.75 271.25 L 170.75 271.75 L 170.50 271.75 L 170.50 274.25 L 170.25 274.25 L 170.25 274.75 L 170.00 274.75 L 170.00 275.00 L 169.75 275.00 L 169.75 275.25 L 169.50 275.25 L 169.50 275.75 L 169.25 275.75 L 169.25 276.00 L 169.00 276.00 L 169.00 276.50 L 168.75 276.50 L 168.75 278.00 L 168.50 278.00 L 168.50 279.50 L 168.75 279.50 L 168.75 279.75 L 168.50 279.75 L 168.50 281.00 L 168.25 281.00 L 168.25 281.25 L 168.00 281.25 L 168.00 281.75 L 167.75 281.75 L 167.75 282.25 L 167.50 282.25 L 167.50 282.50 L 167.25 282.50 L 167.25 283.00 L 167.00 283.00 L 167.00 283.50 L 166.75 283.50 L 166.75 283.75 L 166.50 283.75 L 166.50 284.50 L 166.25 284.50 L 166.25 286.00 L 166.00 286.00 L 166.00 287.00 L 165.75 287.00 L 165.75 288.00 L 165.50 288.00 L 165.50 295.00 L 165.25 295.00 L 165.25 295.25 L 165.00 295.25 L 165.00 295.00 L 164.75 295.00 L 164.75 294.50 L 164.50 294.50 L 164.50 294.00 L 164.25 294.00 L 164.25 293.25 L 164.00 293.25 L 164.00 292.00 L 163.75 292.00 L 163.75 291.25 L 163.50 291.25 L 163.50 288.00 L 163.75 288.00 L 163.75 286.50 L 164.00 286.50 L 164.00 283.75 L 164.25 283.75 L 164.25 282.00 L 164.50 282.00 L 164.50 281.50 L 164.75 281.50 L 164.75 281.00 L 165.00 281.00 L 165.00 280.25 L 165.25 280.25 L 165.25 280.00 L 165.50 280.00 L 165.50 279.75 L 165.75 279.75 L 165.75 279.00 L 166.00 279.00 L 166.00 278.75 L 166.25 278.75 L 166.25 277.25 L 166.00 277.25 L 166.00 277.00 L 165.75 277.00 L 165.75 276.75 L 165.50 276.75 L 165.50 276.50 L 165.25 276.50 L 165.25 276.25 L 164.75 276.25 L 164.75 276.00 L 164.00 276.00 L 164.00 275.75 L 163.50 275.75 L 163.50 275.50 L 163.25 275.50 L 163.25 274.00 L 163.00 274.00 L 163.00 272.75 L 162.75 272.75 L 162.75 272.00 L 162.50 272.00 L 162.50 271.25 L 162.25 271.25 L 162.25 271.00 L 162.00 271.00 L 162.00 270.75 L 161.75 270.75 L 161.75 270.50 L 161.50 270.50 L 161.50 270.25 L 161.00 270.25 L 161.00 270.00 L 160.75 270.00 L 160.75 269.75 L 160.50 269.75 L 160.50 269.50 L 159.75 269.50 L 159.75 269.25 L 159.50 269.25 L 159.50 269.00 L 159.25 269.00 L 159.25 268.75 L 158.75 268.75 L 158.75 268.50 L 158.25 268.50 L 158.25 268.25 L 158.00 268.25 L 158.00 268.00 L 156.25 268.00 L 156.25 268.25 L 156.00 268.25 L 156.00 268.50 L 155.75 268.50 L 155.75 268.75 L 155.00 268.75 L 155.00 268.50 L 154.50 268.50 L 154.50 268.00 L 154.25 268.00 L 154.25 267.75 L 154.00 267.75 L 154.00 267.50 L 153.75 267.50 L 153.75 267.00 L 153.50 267.00 L 153.50 266.75 L 153.25 266.75 L 153.25 266.50 L 153.00 266.50 L 153.00 266.00 L 152.75 266.00 L 152.75 264.25 L 153.00 264.25 L 153.00 263.25 L 153.25 263.25 L 153.25 262.00 L 153.00 262.00 L 153.00 261.50 L 152.75 261.50 L 152.75 261.25 L 152.50 261.25 L 152.50 261.00 L 152.25 261.00 L 152.25 260.75 L 152.00 260.75 L 152.00 260.25 L 151.75 260.25 L 151.75 259.50 L 152.00 259.50 L 152.00 258.75 L 152.25 258.75 L 152.25 258.50 L 152.50 258.50 L 152.50 258.25 L 152.75 258.25 L 152.75 257.75 L 153.00 257.75 L 153.00 257.25 L 153.25 257.25 L 153.25 256.50 L 153.00 256.50 L 153.00 256.25 L 152.75 256.25 L 152.75 256.00 L 152.25 256.00 L 152.25 255.75 L 152.00 255.75 L 152.00 255.50 L 151.75 255.50 L 151.75 254.50 L 152.00 254.50 L 152.00 254.25 L 152.25 254.25 L 152.25 254.00 L 152.50 254.00 L 152.50 253.75 L 152.75 253.75 L 152.75 253.25 L 153.00 253.25 L 153.00 252.00 L 152.75 252.00 L 152.75 251.50 L 152.50 251.50 L 152.50 251.25 L 152.00 251.25 L 152.00 251.00 L 151.75 251.00 L 151.75 250.75 L 151.50 250.75 L 151.50 250.50 L 151.00 250.50 L 151.00 250.25 L 150.75 250.25 L 150.75 250.00 L 150.50 250.00 L 150.50 247.25 L 150.75 247.25 L 150.75 246.75 L 151.25 246.75 L 151.25 246.50 L 151.75 246.50 L 151.75 246.25 L 152.00 246.25 L 152.00 246.00 L 152.25 246.00 L 152.25 245.75 L 152.75 245.75 L 152.75 245.50 L 153.00 245.50 L 153.00 245.00 L 153.25 245.00 L 153.25 244.75 L 153.50 244.75 L 153.50 243.25 L 153.25 243.25 L 153.25 242.75 L 153.00 242.75 L 153.00 242.25 L 152.75 242.25 L 152.75 242.00 L 152.50 242.00 L 152.50 241.75 L 152.00 241.75 L 152.00 241.50 L 151.50 241.50 L 151.50 241.25 L 151.25 241.25 L 151.25 241.00 L 151.00 241.00 L 151.00 240.75 L 150.75 240.75 L 150.75 240.50 L 150.25 240.50 L 150.25 240.25 L 150.00 240.25 L 150.00 240.00 L 148.50 240.00 L 148.50 240.25 L 148.25 240.25 L 148.25 240.50 L 148.00 240.50 L 148.00 240.75 L 147.50 240.75 L 147.50 241.00 L 147.25 241.00 L 147.25 241.75 L 147.00 241.75 L 147.00 243.00 L 147.25 243.00 L 147.25 246.00 L 147.00 246.00 L 147.00 246.25 L 146.50 246.25 L 146.50 246.50 L 145.50 246.50 L 145.50 246.75 L 145.00 246.75 L 145.00 247.00 L 144.75 247.00 L 144.75 247.50 L 144.50 247.50 L 144.50 247.75 L 144.25 247.75 L 144.25 249.50 L 144.00 249.50 L 144.00 249.75 L 143.75 249.75 L 143.75 250.00 L 143.50 250.00 L 143.50 250.25 L 143.25 250.25 L 143.25 250.50 L 143.00 250.50 L 143.00 250.75 L 142.75 250.75 L 142.75 251.00 L 142.50 251.00 L 142.50 251.50 L 142.25 251.50 L 142.25 252.25 L 142.50 252.25 L 142.50 252.75 L 143.00 252.75 L 143.00 253.00 L 143.50 253.00 L 143.50 253.25 L 144.00 253.25 L 144.00 253.50 L 144.50 253.50 L 144.50 253.75 L 144.75 253.75 L 144.75 256.25 L 145.00 256.25 L 145.00 263.25 L 145.25 263.25 L 145.25 264.50 L 145.50 264.50 L 145.50 266.25 L 145.00 266.25 L 145.00 266.50 L 144.50 266.50 L 144.50 267.00 L 144.25 267.00 L 144.25 267.25 L 144.50 267.25 L 144.50 268.25 L 144.75 268.25 L 144.75 269.50 L 145.00 269.50 L 145.00 270.00 L 145.25 270.00 L 145.25 270.50 L 145.50 270.50 L 145.50 271.00 L 145.75 271.00 L 145.75 271.25 L 146.00 271.25 L 146.00 271.50 L 146.25 271.50 L 146.25 272.00 L 146.50 272.00 L 146.50 272.75 L 146.75 272.75 L 146.75 273.00 L 146.50 273.00 L 146.50 274.00 L 146.25 274.00 L 146.25 274.25 L 145.50 274.25 L 145.50 274.00 L 145.25 274.00 L 145.25 273.25 L 145.50 273.25 L 145.50 272.50 L 145.25 272.50 L 145.25 272.00 L 145.00 272.00 L 145.00 271.75 L 144.75 271.75 L 144.75 271.25 L 144.50 271.25 L 144.50 271.00 L 144.25 271.00 L 144.25 270.50 L 144.00 270.50 L 144.00 270.00 L 143.75 270.00 L 143.75 269.75 L 143.50 269.75 L 143.50 269.50 L 143.25 269.50 L 143.25 269.00 L 143.00 269.00 L 143.00 268.75 L 142.75 268.75 L 142.75 268.50 L 142.50 268.50 L 142.50 268.00 L 142.25 268.00 L 142.25 267.50 L 142.00 267.50 L 142.00 267.25 L 141.75 267.25 L 141.75 267.00 L 141.50 267.00 L 141.50 266.75 L 141.25 266.75 L 141.25 266.50 L 140.75 266.50 L 140.75 266.25 L 140.50 266.25 L 140.50 266.00 L 140.25 266.00 L 140.25 265.75 L 139.75 265.75 L 139.75 265.50 L 139.25 265.50 L 139.25 265.25 L 139.00 265.25 L 139.00 265.00 L 138.50 265.00 L 138.50 264.75 L 137.00 264.75 L 137.00 264.50 L 136.75 264.50 L 136.75 264.25 L 136.50 264.25 L 136.50 264.00 L 136.25 264.00 L 136.25 263.75 L 136.00 263.75 L 136.00 263.50 L 135.75 263.50 L 135.75 262.75 L 135.50 262.75 L 135.50 261.75 L 135.75 261.75 L 135.75 261.25 L 136.00 261.25 L 136.00 259.75 L 136.25 259.75 L 136.25 258.75 L 136.50 258.75 L 136.50 258.25 L 136.25 258.25 L 136.25 257.25 L 136.00 257.25 L 136.00 256.50 L 135.75 256.50 L 135.75 256.25 L 135.50 256.25 L 135.50 256.00 L 135.25 256.00 L 135.25 255.75 L 135.00 255.75 L 135.00 255.50 L 134.75 255.50 L 134.75 255.25 L 134.50 255.25 L 134.50 255.00 L 134.25 255.00 L 134.25 254.75 L 134.00 254.75 L 134.00 254.50 L 133.50 254.50 L 133.50 254.25 L 133.25 254.25 L 133.25 254.00 L 133.00 254.00 L 133.00 253.75 L 132.75 253.75 L 132.75 253.50 L 132.50 253.50 L 132.50 253.25 L 132.25 253.25 L 132.25 253.00 L 132.00 253.00 L 132.00 252.75 L 131.75 252.75 L 131.75 252.50 L 131.50 252.50 L 131.50 252.25 L 131.25 252.25 L 131.25 252.00 L 130.75 252.00 L 130.75 251.75 L 130.50 251.75 L 130.50 251.25 L 130.25 251.25 L 130.25 251.00 L 130.00 251.00 L 130.00 250.75 L 129.75 250.75 L 129.75 250.50 L 129.50 250.50 L 129.50 250.25 L 129.00 250.25 L 129.00 250.00 L 128.75 250.00 L 128.75 249.75 L 128.50 249.75 L 128.50 249.50 L 128.25 249.50 L 128.25 249.25 L 128.00 249.25 L 128.00 249.00 L 127.75 249.00 L 127.75 248.75 L 127.50 248.75 L 127.50 248.50 L 127.25 248.50 L 127.25 248.25 L 127.00 248.25 L 127.00 248.00 L 126.75 248.00 L 126.75 247.75 L 126.50 247.75 L 126.50 247.50 L 126.25 247.50 L 126.25 247.25 L 125.75 247.25 L 125.75 247.00 L 125.50 247.00 L 125.50 246.75 L 125.25 246.75 L 125.25 246.50 L 125.00 246.50 L 125.00 246.25 L 124.50 246.25 L 124.50 246.00 L 124.25 246.00 L 124.25 245.75 L 124.00 245.75 L 124.00 245.50 L 123.25 245.50 L 123.25 245.25 L 123.00 245.25 L 123.00 245.00 L 122.75 245.00 L 122.75 244.75 L 122.25 244.75 L 122.25 244.50 L 122.00 244.50 L 122.00 244.25 L 121.75 244.25 L 121.75 244.00 L 121.25 244.00 L 121.25 243.75 L 121.00 243.75 L 121.00 243.50 L 120.75 243.50 L 120.75 243.25 L 120.50 243.25 L 120.50 243.00 L 120.25 243.00 L 120.25 242.75 L 120.00 242.75 L 120.00 242.50 L 119.50 242.50 L 119.50 242.25 L 119.00 242.25 L 119.00 242.00 L 118.75 242.00 L 118.75 241.75 L 118.25 241.75 L 118.25 241.50 L 115.25 241.50 L 115.25 241.75 L 114.75 241.75 L 114.75 241.50 L 113.50 241.50 L 113.50 241.75 L 112.75 241.75 L 112.75 242.00 L 112.25 242.00 L 112.25 242.25 L 112.00 242.25 L 112.00 242.50 L 111.50 242.50 L 111.50 242.75 L 111.25 242.75 L 111.25 243.00 L 111.00 243.00 L 111.00 243.25 L 110.75 243.25 L 110.75 243.50 L 110.50 243.50 L 110.50 244.00 L 109.75 244.00 L 109.75 244.25 L 109.50 244.25 L 109.50 244.00 L 107.25 244.00 L 107.25 243.75 L 106.50 243.75 L 106.50 243.50 L 105.75 243.50 L 105.75 243.25 L 104.75 243.25 L 104.75 243.50 L 104.25 243.50 L 104.25 243.75 L 103.75 243.75 L 103.75 244.00 L 103.25 244.00 L 103.25 244.25 L 103.00 244.25 L 103.00 244.50 L 102.75 244.50 L 102.75 244.75 L 102.50 244.75 L 102.50 245.00 L 102.25 245.00 L 102.25 245.25 L 102.00 245.25 L 102.00 245.50 L 101.50 245.50 L 101.50 245.75 L 101.25 245.75 L 101.25 246.00 L 101.00 246.00 L 101.00 246.25 L 100.50 246.25 L 100.50 246.50 L 99.75 246.50 L 99.75 246.75 L 99.50 246.75 L 99.50 247.00 L 98.75 247.00 L 98.75 247.25 L 98.25 247.25 L 98.25 247.50 L 98.00 247.50 L 98.00 247.75 L 97.75 247.75 L 97.75 248.00 L 97.50 248.00 L 97.50 248.25 L 97.25 248.25 L 97.25 248.50 L 97.00 248.50 L 97.00 248.75 L 96.75 248.75 L 96.75 249.00 L 96.25 249.00 L 96.25 249.50 L 96.00 249.50 L 96.00 249.75 L 95.75 249.75 L 95.75 250.00 L 95.50 250.00 L 95.50 250.25 L 95.25 250.25 L 95.25 250.50 L 95.00 250.50 L 95.00 251.00 L 94.75 251.00 L 94.75 251.25 L 94.25 251.25 L 94.25 251.75 L 93.75 251.75 L 93.75 252.00 L 93.00 252.00 L 93.00 252.25 L 92.75 252.25 L 92.75 252.50 L 92.25 252.50 L 92.25 252.75 L 91.50 252.75 L 91.50 253.00 L 91.25 253.00 L 91.25 253.25 L 90.75 253.25 L 90.75 252.75 L 90.50 252.75 L 90.50 252.50 L 90.75 252.50 L 90.75 252.00 L 91.00 252.00 L 91.00 251.75 L 91.25 251.75 L 91.25 251.50 L 91.50 251.50 L 91.50 251.25 L 91.75 251.25 L 91.75 251.00 L 92.00 251.00 L 92.00 250.50 L 92.25 250.50 L 92.25 246.75 L 92.50 246.75 L 92.50 246.50 L 93.00 246.50 L 93.00 246.25 L 93.25 246.25 L 93.25 246.00 L 93.50 246.00 L 93.50 245.75 L 93.75 245.75 L 93.75 245.25 L 94.00 245.25 L 94.00 244.75 L 94.25 244.75 L 94.25 244.50 L 95.00 244.50 L 95.00 244.25 L 95.75 244.25 L 95.75 244.00 L 97.25 244.00 L 97.25 243.75 L 97.75 243.75 L 97.75 243.50 L 98.50 243.50 L 98.50 243.25 L 99.75 243.25 L 99.75 243.00 L 100.50 243.00 L 100.50 242.75 L 101.25 242.75 L 101.25 242.50 L 102.25 242.50 L 102.25 242.25 L 103.25 242.25 L 103.25 242.00 L 103.75 242.00 L 103.75 241.75 L 105.00 241.75 L 105.00 241.50 L 106.00 241.50 L 106.00 241.25 L 106.75 241.25 L 106.75 241.00 L 110.75 241.00 L 110.75 241.25 L 112.25 241.25 L 112.25 241.00 L 113.50 241.00 L 113.50 240.75 L 117.00 240.75 L 117.00 240.50 L 118.00 240.50 L 118.00 240.25 L 119.00 240.25 L 119.00 240.00 L 119.75 240.00 L 119.75 239.75 L 120.50 239.75 L 120.50 239.50 L 121.00 239.50 L 121.00 239.25 L 122.25 239.25 L 122.25 239.00 L 123.75 239.00 L 123.75 238.75 L 125.25 238.75 L 125.25 238.50 L 130.75 238.50 L 130.75 238.25 L 132.25 238.25 L 132.25 238.00 L 132.75 238.00 L 132.75 237.75 L 134.50 237.75 L 134.50 237.50 L 136.25 237.50 L 136.25 237.25 L 136.75 237.25 L 136.75 237.00 L 137.75 237.00 L 137.75 236.75 L 139.00 236.75 L 139.00 236.50 L 139.75 236.50 L 139.75 236.25 L 140.50 236.25 L 140.50 236.00 L 141.50 236.00 L 141.50 235.75 L 142.50 235.75 L 142.50 235.50 L 143.25 235.50 L 143.25 235.25 L 145.75 235.25 L 145.75 235.00 L 147.25 235.00 L 147.25 234.75 L 147.75 234.75 L 147.75 234.50 L 148.50 234.50 L 148.50 234.25 L 149.25 234.25 L 149.25 234.00 L 150.00 234.00 L 150.00 233.75 L 150.75 233.75 L 150.75 233.50 L 151.50 233.50 L 151.50 233.75 L 151.75 233.75 L 151.75 237.50 L 152.00 237.50 L 152.00 238.75 L 152.25 238.75 L 152.25 239.00 L 152.50 239.00 L 152.50 239.25 L 152.75 239.25 L 152.75 239.50 L 153.00 239.50 L 153.00 239.75 L 153.25 239.75 L 153.25 240.00 L 153.75 240.00 L 153.75 240.25 L 154.25 240.25 L 154.25 240.50 L 154.75 240.50 L 154.75 240.75 L 155.00 240.75 L 155.00 241.25 L 155.25 241.25 L 155.25 242.25 L 155.50 242.25 L 155.50 243.00 L 155.75 243.00 L 155.75 244.25 L 156.00 244.25 L 156.00 247.00 L 156.25 247.00 L 156.25 248.75 L 156.50 248.75 L 156.50 250.25 L 156.75 250.25 L 156.75 252.25 L 157.00 252.25 L 157.00 253.25 L 157.25 253.25 L 157.25 254.25 L 157.50 254.25 L 157.50 258.00 L 157.75 258.00 L 157.75 259.00 L 158.00 259.00 L 158.00 259.25 L 158.25 259.25 L 158.25 259.75 L 158.50 259.75 L 158.50 260.25 L 159.00 260.25 L 159.00 260.50 L 159.25 260.50 L 159.25 260.75 L 160.00 260.75 L 160.00 261.00 L 162.25 261.00 L 162.25 260.75 L 162.75 260.75 L 162.75 260.50 L 163.00 260.50 L 163.00 260.25 L 163.25 260.25 L 163.25 260.00 L 164.00 260.00 L 164.00 259.75 L 165.50 259.75 L 165.50 259.50 L 167.00 259.50 L 167.00 259.25 L 170.00 259.25 L 170.00 259.00 L 170.75 259.00 L 170.75 258.75 L 171.00 258.75 L 171.00 258.50 L 171.25 258.50 L 171.25 258.25 L 172.50 258.25 L 172.50 258.50 L 172.75 258.50 L 172.75 259.00 L 173.00 259.00 L 173.00 259.50 L 172.75 259.50 L 172.75 261.75 L 173.00 261.75 L 173.00 262.75 L 173.25 262.75 L 173.25 263.50 L 173.50 263.50 L 173.50 264.50 L 173.75 264.50 L 173.75 264.75 L 174.00 264.75 L 174.00 265.50 L 174.25 265.50 L 174.25 267.25 L 174.00 267.25 L 174.00 268.50 L 173.75 268.50 L 173.75 268.75 L 173.50 268.75 L 173.50 269.00 L 173.25 269.00 L 173.25 269.25 L 173.00 269.25 L 173.00 269.50 L 172.25 269.50 L 172.25 269.75 Z"/>
  <path id="VA" d="M 76.8 317.6 L 83.2 312.0 L 83.2 310.4 L 85.6 308.8 L 87.2 305.6 L 87.2 297.6 L 88.8 296.8 L 88.8 288.0 L 87.2 285.6 L 87.2 276.0 L 88.0 276.0 L 87.2 262.4 L 89.6 260.8 L 90.4 256.0 L 92.8 254.4 L 95.2 254.4 L 100.0 248.8 L 101.6 248.8 L 104.8 245.6 L 111.2 246.4 L 112.8 244.0 L 118.4 244.0 L 120.0 246.4 L 124.0 248.0 L 132.0 256.8 L 134.4 257.6 L 132.8 263.2 L 135.2 266.4 L 140.8 268.8 L 140.8 270.4 L 143.2 272.8 L 140.8 275.2 L 148.0 280.0 L 153.6 280.8 L 153.6 284.0 L 148.0 282.4 L 146.4 283.2 L 146.4 284.8 L 149.6 287.2 L 152.0 287.2 L 152.0 290.4 L 156.0 291.2 L 153.6 292.8 L 153.6 296.8 L 157.6 300.0 L 153.6 300.8 L 153.6 304.0 L 154.4 304.8 L 158.4 304.8 L 160.0 303.2 L 161.6 304.0 L 161.6 305.6 L 156.0 305.6 L 152.0 308.0 L 150.4 307.2 L 144.0 308.0 L 143.2 309.6 L 140.8 309.6 L 140.8 310.4 L 122.4 311.2 L 120.0 312.8 L 116.8 312.8 L 113.6 315.2 L 108.0 315.2 L 108.0 316.0 L 100.0 317.6 L 100.0 318.4 L 77.6 318.4 L 77.6 319.2 L 76.8 318.4 Z"/>
  <path id="NC" d="M 51.2 356.0 L 52.8 352.8 L 55.2 351.2 L 56.0 348.0 L 58.4 346.4 L 58.4 344.8 L 67.2 341.6 L 68.8 337.6 L 72.8 334.4 L 76.0 321.6 L 101.6 320.8 L 106.4 318.4 L 115.2 317.6 L 120.8 314.4 L 141.6 312.8 L 145.6 310.4 L 153.6 310.4 L 157.6 308.0 L 164.8 308.0 L 164.0 311.2 L 165.6 312.0 L 167.2 316.0 L 165.6 316.0 L 164.0 319.2 L 161.6 319.2 L 160.8 321.6 L 155.2 323.2 L 155.2 327.2 L 159.2 328.0 L 160.0 325.6 L 164.0 327.2 L 165.6 324.8 L 168.0 325.6 L 169.6 329.6 L 172.8 328.0 L 172.8 325.6 L 175.2 327.2 L 175.2 328.8 L 171.2 332.8 L 170.4 336.8 L 158.4 336.8 L 157.6 337.6 L 157.6 340.0 L 159.2 341.6 L 161.6 341.6 L 160.8 349.6 L 164.8 349.6 L 164.8 348.0 L 167.2 348.0 L 168.0 350.4 L 166.4 351.2 L 166.4 352.8 L 161.6 353.6 L 158.4 355.2 L 157.6 356.8 L 152.8 358.4 L 148.8 362.4 L 147.2 362.4 L 146.4 367.2 L 144.8 367.2 L 144.0 368.8 L 142.4 378.4 L 135.2 377.6 L 134.4 379.2 L 132.8 379.2 L 132.0 376.0 L 130.4 376.0 L 122.4 368.8 L 118.4 367.2 L 115.2 362.4 L 112.0 361.6 L 108.8 358.4 L 93.6 358.4 L 88.8 360.8 L 85.6 356.8 L 77.6 355.2 L 77.6 354.4 L 76.0 355.2 L 59.2 355.2 L 55.2 357.6 L 51.2 357.6 L 51.2 356.8 Z"/>
  <path id="SC" d="M 42.4 368.0 L 44.8 366.4 L 45.6 364.8 L 44.8 363.2 L 47.2 362.4 L 48.8 360.0 L 56.8 360.0 L 57.6 358.4 L 60.0 358.4 L 60.0 357.6 L 80.0 357.6 L 80.0 358.4 L 84.8 359.2 L 84.8 360.8 L 87.2 363.2 L 91.2 363.2 L 94.4 360.8 L 107.2 360.8 L 110.4 362.4 L 111.2 364.0 L 112.8 364.0 L 118.4 370.4 L 120.0 370.4 L 121.6 372.8 L 123.2 372.8 L 124.0 374.4 L 125.6 374.4 L 127.2 376.8 L 128.8 376.8 L 131.2 379.2 L 129.6 381.6 L 127.2 382.4 L 126.4 385.6 L 123.2 387.2 L 122.4 388.8 L 123.2 395.2 L 120.0 401.6 L 115.2 402.4 L 113.6 404.0 L 112.8 408.0 L 110.4 408.8 L 109.6 410.4 L 110.4 412.8 L 108.8 414.4 L 105.6 416.0 L 100.8 416.0 L 100.0 417.6 L 100.8 421.6 L 94.4 426.4 L 88.8 422.4 L 87.2 417.6 L 84.0 415.2 L 83.2 407.2 L 81.6 406.4 L 81.6 404.8 L 79.2 404.0 L 79.2 402.4 L 74.4 397.6 L 72.8 397.6 L 69.6 393.6 L 65.6 392.8 L 61.6 388.0 L 58.4 387.2 L 56.0 382.4 L 52.8 380.8 L 51.2 376.8 L 48.0 375.2 L 42.4 368.8 Z"/>
  <path id="GA" d="M 24.0 400.8 L 26.4 400.0 L 30.4 392.0 L 30.4 386.4 L 32.0 384.8 L 30.4 383.2 L 31.2 380.0 L 36.0 374.4 L 37.6 368.0 L 40.8 364.8 L 42.4 364.8 L 40.0 367.2 L 40.0 371.2 L 50.4 380.0 L 50.4 381.6 L 54.4 384.8 L 56.8 389.6 L 60.0 390.4 L 63.2 394.4 L 68.8 396.0 L 68.8 397.6 L 71.2 398.4 L 80.8 408.0 L 80.8 414.4 L 82.4 417.6 L 84.8 418.4 L 88.0 425.6 L 94.4 428.8 L 93.6 431.2 L 91.2 432.8 L 91.2 440.0 L 88.8 444.8 L 88.8 451.2 L 88.0 451.2 L 88.0 459.2 L 80.8 459.2 L 80.8 458.4 L 76.8 459.2 L 76.8 464.0 L 78.4 467.2 L 76.0 468.8 L 73.6 466.4 L 71.2 460.8 L 69.6 460.8 L 68.8 459.2 L 65.6 457.6 L 63.2 457.6 L 57.6 452.0 L 54.4 451.2 L 52.8 448.8 L 49.6 447.2 L 47.2 440.8 L 45.6 440.0 L 45.6 437.6 L 43.2 436.8 L 37.6 431.2 L 36.0 424.0 L 34.4 424.0 L 28.0 417.6 L 27.2 413.6 L 24.8 412.0 L 24.0 401.6 Z"/>
  <g class="boundary-lines" aria-hidden="true">
    <path d="M 180.0 155.2 L 184.8 155.2 L 186.4 153.6 L 192.0 152.8 L 193.6 151.2 L 204.0 149.6 L 214.4 144.0 L 220.0 144.0 L 219.2 147.2 L 220.8 149.6 L 222.4 149.6 L 220.0 154.4 L 221.6 161.6 L 223.2 162.4 L 225.6 161.6 L 226.4 163.2 L 228.0 163.2 L 228.8 167.2 L 231.2 169.6 L 238.4 168.8 L 234.4 173.6 L 232.0 174.4 L 232.0 178.4 L 231.2 178.4 L 231.2 172.8 L 228.8 169.6 L 227.2 171.2 L 228.0 174.4 L 223.2 176.8 L 222.4 173.6 L 220.0 172.8 L 219.2 167.2 L 216.8 166.4 L 212.0 161.6 L 209.6 161.6 L 208.0 163.2 L 200.0 163.2 L 196.8 165.6 L 190.4 165.6 L 189.6 168.0 L 184.8 168.0 L 183.2 169.6 L 180.0 169.6 L 180.0 156.0 Z M 200.0 64.0 L 202.4 61.6 L 203.2 57.6 L 204.0 57.6 L 204.0 55.2 L 203.2 55.2 L 204.0 50.4 L 207.2 48.0 L 207.2 45.6 L 208.0 45.6 L 208.8 35.2 L 210.4 34.4 L 211.2 32.0 L 212.8 32.0 L 215.2 29.6 L 215.2 24.8 L 218.4 23.2 L 225.6 14.4 L 232.0 13.6 L 232.0 17.6 L 234.4 20.8 L 235.2 26.4 L 238.4 31.2 L 238.4 37.6 L 240.0 38.4 L 240.0 44.8 L 242.4 47.2 L 243.2 53.6 L 245.6 55.2 L 245.6 59.2 L 246.4 59.2 L 246.4 62.4 L 248.0 63.2 L 248.0 66.4 L 249.6 68.8 L 254.4 68.8 L 254.4 72.8 L 256.0 73.6 L 256.0 75.2 L 257.6 76.8 L 260.0 76.8 L 264.0 81.6 L 265.6 81.6 L 265.6 85.6 L 259.2 92.0 L 259.2 93.6 L 256.8 93.6 L 255.2 96.8 L 253.6 95.2 L 250.4 95.2 L 247.2 98.4 L 246.4 100.8 L 242.4 97.6 L 240.0 99.2 L 238.4 102.4 L 238.4 112.8 L 236.0 113.6 L 235.2 116.0 L 228.8 116.8 L 224.8 120.0 L 224.0 121.6 L 224.8 126.4 L 224.0 126.4 L 222.4 133.6 L 220.8 133.6 L 212.8 124.0 L 210.4 116.0 L 208.0 112.0 L 205.6 94.4 L 204.8 94.4 L 204.8 92.0 L 203.2 90.4 L 203.2 88.0 L 200.8 83.2 L 200.0 64.8 Z"/>
    <path d="M 173.6 127.2 L 176.8 124.8 L 178.4 121.6 L 180.0 121.6 L 182.4 118.4 L 186.4 116.8 L 186.4 109.6 L 189.6 106.4 L 191.2 100.8 L 193.6 99.2 L 196.8 87.2 L 199.2 85.6 L 200.8 91.2 L 202.4 92.8 L 202.4 96.8 L 203.2 96.8 L 203.2 100.0 L 204.8 103.2 L 205.6 113.6 L 208.0 116.8 L 208.8 121.6 L 211.2 126.4 L 212.8 127.2 L 212.8 128.8 L 216.8 132.0 L 218.4 135.2 L 220.8 136.0 L 220.8 141.6 L 212.8 141.6 L 204.8 146.4 L 202.4 146.4 L 200.0 148.0 L 195.2 148.0 L 191.2 150.4 L 187.2 150.4 L 185.6 152.0 L 180.0 152.8 L 178.4 140.8 L 176.0 137.6 L 176.8 132.0 L 173.6 129.6 L 173.6 128.0 Z"/>
    <path d="M 207.2 165.6 L 208.8 165.6 L 208.8 164.8 L 212.0 164.8 L 212.0 165.6 L 213.6 165.6 L 213.6 166.4 L 214.4 166.4 L 214.4 168.0 L 215.2 168.0 L 215.2 168.8 L 216.8 168.8 L 216.8 171.2 L 217.6 171.2 L 217.6 172.0 L 218.4 172.0 L 218.4 172.8 L 217.6 172.8 L 217.6 179.2 L 216.8 179.2 L 216.8 181.6 L 215.2 181.6 L 215.2 180.8 L 212.8 180.8 L 212.8 180.0 L 211.2 180.0 L 211.2 179.2 L 210.4 179.2 L 210.4 174.4 L 209.6 174.4 L 209.6 171.2 L 208.8 171.2 L 208.8 169.6 L 208.0 169.6 L 208.0 167.2 L 207.2 167.2 L 207.2 166.4 Z"/>
    <path d="M 180.8 172.8 L 183.2 172.8 L 183.2 172.0 L 184.8 172.0 L 185.6 170.4 L 188.8 170.4 L 188.8 171.2 L 190.4 171.2 L 190.4 170.4 L 192.0 170.4 L 192.0 168.0 L 197.6 168.0 L 197.6 167.2 L 199.2 167.2 L 199.2 166.4 L 200.8 166.4 L 200.8 165.6 L 204.0 165.6 L 204.0 166.4 L 204.8 166.4 L 204.8 168.0 L 205.6 168.0 L 205.6 170.4 L 206.4 170.4 L 206.4 172.8 L 207.2 172.8 L 207.2 177.6 L 208.0 177.6 L 208.0 180.8 L 208.8 180.8 L 209.6 182.4 L 212.8 182.4 L 212.8 183.2 L 213.6 183.2 L 212.8 184.8 L 205.6 184.8 L 205.6 185.6 L 204.0 185.6 L 204.0 186.4 L 202.4 186.4 L 202.4 187.2 L 201.6 187.2 L 200.8 188.8 L 196.8 188.8 L 196.8 189.6 L 195.2 189.6 L 195.2 188.8 L 193.6 188.8 L 193.6 189.6 L 192.0 189.6 L 192.0 191.2 L 191.2 191.2 L 191.2 192.0 L 190.4 192.0 L 189.6 193.6 L 188.0 193.6 L 188.0 194.4 L 187.2 194.4 L 186.4 196.0 L 184.8 196.0 L 184.8 196.8 L 184.0 196.8 L 184.0 195.2 L 184.8 195.2 L 184.8 194.4 L 184.0 194.4 L 184.0 192.8 L 183.2 192.8 L 183.2 189.6 L 184.0 189.6 L 184.0 187.2 L 182.4 186.4 L 182.4 175.2 L 181.6 175.2 L 181.6 173.6 L 180.8 173.6 Z"/>
    <path d="M 115.2 182.4 L 117.6 180.0 L 124.0 180.0 L 125.6 178.4 L 126.4 174.4 L 128.0 172.8 L 128.0 169.6 L 129.6 168.8 L 131.2 164.8 L 134.4 161.6 L 139.2 160.0 L 140.0 157.6 L 142.4 156.0 L 142.4 154.4 L 146.4 150.4 L 146.4 148.8 L 148.0 148.8 L 149.6 145.6 L 151.2 144.8 L 152.8 131.2 L 156.0 128.8 L 159.2 128.8 L 160.0 127.2 L 161.6 127.2 L 165.6 131.2 L 166.4 135.2 L 168.0 136.8 L 173.6 136.8 L 173.6 139.2 L 176.0 141.6 L 176.8 150.4 L 177.6 150.4 L 177.6 172.0 L 180.0 176.8 L 180.0 187.2 L 181.6 188.0 L 180.0 192.0 L 182.4 196.0 L 182.4 200.0 L 180.0 199.2 L 178.4 194.4 L 176.0 192.0 L 171.2 191.2 L 166.4 188.0 L 162.4 188.0 L 158.4 183.2 L 155.2 182.4 L 151.2 177.6 L 148.8 177.6 L 148.8 176.8 L 138.4 179.2 L 136.0 180.8 L 125.6 180.8 L 125.6 181.6 L 123.2 181.6 L 122.4 183.2 L 115.2 183.2 Z M 181.6 204.0 L 184.0 204.8 L 186.4 201.6 L 190.4 201.6 L 193.6 197.6 L 199.2 196.8 L 204.8 193.6 L 208.8 194.4 L 204.0 199.2 L 193.6 201.6 L 192.0 204.8 L 188.8 205.6 L 186.4 208.0 L 181.6 208.0 L 181.6 204.8 Z"/>
    <path d="M 158.4 236.0 L 160.0 236.0 L 160.0 235.2 L 160.8 235.2 L 160.8 228.8 L 161.6 228.8 L 161.6 228.0 L 163.2 227.2 L 163.2 225.6 L 164.0 225.6 L 164.0 224.0 L 166.4 224.0 L 166.4 223.2 L 168.0 222.4 L 168.0 220.8 L 168.8 220.8 L 168.8 216.0 L 168.0 216.0 L 168.0 215.2 L 167.2 215.2 L 167.2 214.4 L 166.4 214.4 L 166.4 213.6 L 165.6 213.6 L 165.6 212.8 L 164.8 212.8 L 164.8 212.0 L 164.0 212.0 L 164.0 211.2 L 163.2 211.2 L 163.2 210.4 L 162.4 210.4 L 161.6 208.8 L 160.0 208.8 L 160.0 207.2 L 159.2 207.2 L 159.2 204.8 L 160.0 204.8 L 160.0 199.2 L 160.8 199.2 L 160.8 196.8 L 161.6 196.8 L 161.6 194.4 L 162.4 194.4 L 162.4 191.2 L 163.2 191.2 L 163.2 190.4 L 165.6 190.4 L 165.6 191.2 L 167.2 191.2 L 167.2 192.0 L 168.8 192.0 L 168.8 192.8 L 170.4 192.8 L 170.4 193.6 L 173.6 193.6 L 173.6 194.4 L 174.4 194.4 L 174.4 195.2 L 175.2 195.2 L 175.2 196.0 L 176.8 196.8 L 176.8 199.2 L 177.6 199.2 L 177.6 200.8 L 178.4 200.8 L 178.4 206.4 L 177.6 206.4 L 177.6 208.8 L 176.8 208.8 L 176.8 213.6 L 177.6 213.6 L 178.4 215.2 L 180.0 215.2 L 180.0 216.8 L 180.8 216.8 L 180.8 220.8 L 181.6 220.8 L 181.6 222.4 L 182.4 222.4 L 182.4 228.8 L 181.6 228.8 L 181.6 231.2 L 180.8 231.2 L 180.8 234.4 L 180.0 234.4 L 180.0 236.0 L 179.2 236.0 L 179.2 236.8 L 178.4 236.8 L 178.4 238.4 L 177.6 238.4 L 177.6 240.8 L 176.8 240.8 L 176.8 244.0 L 176.0 244.0 L 176.0 245.6 L 175.2 245.6 L 175.2 248.8 L 173.6 248.8 L 173.6 247.2 L 172.8 247.2 L 172.0 245.6 L 169.6 245.6 L 169.6 244.8 L 168.0 244.8 L 168.0 244.0 L 165.6 244.0 L 165.6 243.2 L 164.8 243.2 L 164.8 242.4 L 164.0 242.4 L 164.0 241.6 L 163.2 241.6 L 162.4 240.0 L 160.8 240.0 L 160.8 239.2 L 160.0 239.2 L 160.0 237.6 L 158.4 236.8 Z"/>
    <path d="M 94.4 221.6 L 96.0 218.4 L 99.2 216.0 L 99.2 209.6 L 101.6 207.2 L 101.6 204.0 L 107.2 200.0 L 107.2 192.0 L 108.0 192.0 L 108.0 188.8 L 109.6 188.0 L 109.6 186.4 L 124.0 185.6 L 124.8 184.0 L 127.2 184.0 L 127.2 183.2 L 136.8 183.2 L 136.8 182.4 L 142.4 181.6 L 144.8 180.0 L 149.6 180.0 L 152.0 183.2 L 156.0 184.8 L 160.8 189.6 L 158.4 198.4 L 157.6 198.4 L 156.8 208.0 L 166.4 217.6 L 165.6 221.6 L 163.2 221.6 L 160.0 227.2 L 156.0 227.2 L 152.0 231.2 L 139.2 233.6 L 136.8 235.2 L 120.8 236.8 L 117.6 238.4 L 103.2 239.2 L 103.2 240.0 L 97.6 240.8 L 95.2 242.4 L 94.4 240.8 L 95.2 240.8 L 95.2 236.0 L 96.0 236.0 L 96.0 228.8 L 94.4 227.2 L 94.4 222.4 Z"/>
    <path d="M 157.75 242.00 L 158.00 242.00 L 158.00 242.25 L 158.25 242.25 L 158.25 243.00 L 158.50 243.00 L 158.50 243.25 L 158.75 243.25 L 158.75 243.50 L 159.00 243.50 L 159.00 243.75 L 159.25 243.75 L 159.25 244.25 L 159.50 244.25 L 159.50 244.50 L 159.75 244.50 L 159.75 245.00 L 160.00 245.00 L 160.00 245.25 L 160.25 245.25 L 160.25 245.50 L 160.50 245.50 L 160.50 246.00 L 160.75 246.00 L 160.75 246.25 L 161.00 246.25 L 161.00 246.50 L 161.25 246.50 L 161.25 246.75 L 161.50 246.75 L 161.50 247.00 L 161.75 247.00 L 161.75 247.25 L 162.00 247.25 L 162.00 247.50 L 162.25 247.50 L 162.25 248.00 L 162.50 248.00 L 162.50 248.50 L 162.75 248.50 L 162.75 248.75 L 163.00 248.75 L 163.00 249.50 L 163.25 249.50 L 163.25 250.00 L 163.50 250.00 L 163.50 250.25 L 163.75 250.25 L 163.75 250.75 L 164.00 250.75 L 164.00 251.50 L 164.25 251.50 L 164.25 251.75 L 164.50 251.75 L 164.50 252.00 L 164.75 252.00 L 164.75 252.50 L 165.00 252.50 L 165.00 252.75 L 165.25 252.75 L 165.25 253.00 L 165.50 253.00 L 165.50 253.25 L 165.75 253.25 L 165.75 253.50 L 166.00 253.50 L 166.00 253.75 L 166.25 253.75 L 166.25 254.00 L 166.50 254.00 L 166.50 254.25 L 166.75 254.25 L 166.75 254.50 L 167.00 254.50 L 167.00 254.75 L 167.25 254.75 L 167.25 255.00 L 167.50 255.00 L 167.50 255.25 L 167.75 255.25 L 167.75 255.50 L 168.00 255.50 L 168.00 255.75 L 168.25 255.75 L 168.25 256.00 L 168.50 256.00 L 168.50 256.25 L 168.75 256.25 L 168.75 257.25 L 167.50 257.25 L 167.50 257.50 L 164.75 257.50 L 164.75 257.75 L 163.25 257.75 L 163.25 258.00 L 162.75 258.00 L 162.75 258.25 L 162.25 258.25 L 162.25 258.50 L 161.75 258.50 L 161.75 258.75 L 161.50 258.75 L 161.50 259.00 L 160.75 259.00 L 160.75 258.75 L 160.50 258.75 L 160.50 258.50 L 160.00 258.50 L 160.00 258.00 L 159.75 258.00 L 159.75 256.00 L 159.50 256.00 L 159.50 254.25 L 159.25 254.25 L 159.25 252.25 L 159.00 252.25 L 159.00 251.50 L 158.75 251.50 L 158.75 250.75 L 158.50 250.75 L 158.50 248.75 L 158.25 248.75 L 158.25 245.50 L 158.00 245.50 L 158.00 243.75 L 157.75 243.75 L 157.75 242.75 L 157.50 242.75 L 157.50 242.50 L 157.75 242.50 Z"/>
    <path d="M 76.8 317.6 L 83.2 312.0 L 83.2 310.4 L 85.6 308.8 L 87.2 305.6 L 87.2 297.6 L 88.8 296.8 L 88.8 288.0 L 87.2 285.6 L 87.2 276.0 L 88.0 276.0 L 87.2 262.4 L 89.6 260.8 L 90.4 256.0 L 92.8 254.4 L 95.2 254.4 L 100.0 248.8 L 101.6 248.8 L 104.8 245.6 L 111.2 246.4 L 112.8 244.0 L 118.4 244.0 L 120.0 246.4 L 124.0 248.0 L 132.0 256.8 L 134.4 257.6 L 132.8 263.2 L 135.2 266.4 L 140.8 268.8 L 140.8 270.4 L 143.2 272.8 L 140.8 275.2 L 148.0 280.0 L 153.6 280.8 L 153.6 284.0 L 148.0 282.4 L 146.4 283.2 L 146.4 284.8 L 149.6 287.2 L 152.0 287.2 L 152.0 290.4 L 156.0 291.2 L 153.6 292.8 L 153.6 296.8 L 157.6 300.0 L 153.6 300.8 L 153.6 304.0 L 154.4 304.8 L 158.4 304.8 L 160.0 303.2 L 161.6 304.0 L 161.6 305.6 L 156.0 305.6 L 152.0 308.0 L 150.4 307.2 L 144.0 308.0 L 143.2 309.6 L 140.8 309.6 L 140.8 310.4 L 122.4 311.2 L 120.0 312.8 L 116.8 312.8 L 113.6 315.2 L 108.0 315.2 L 108.0 316.0 L 100.0 317.6 L 100.0 318.4 L 77.6 318.4 L 77.6 319.2 L 76.8 318.4 Z"/>
    <path d="M 51.2 356.0 L 52.8 352.8 L 55.2 351.2 L 56.0 348.0 L 58.4 346.4 L 58.4 344.8 L 67.2 341.6 L 68.8 337.6 L 72.8 334.4 L 76.0 321.6 L 101.6 320.8 L 106.4 318.4 L 115.2 317.6 L 120.8 314.4 L 141.6 312.8 L 145.6 310.4 L 153.6 310.4 L 157.6 308.0 L 164.8 308.0 L 164.0 311.2 L 165.6 312.0 L 167.2 316.0 L 165.6 316.0 L 164.0 319.2 L 161.6 319.2 L 160.8 321.6 L 155.2 323.2 L 155.2 327.2 L 159.2 328.0 L 160.0 325.6 L 164.0 327.2 L 165.6 324.8 L 168.0 325.6 L 169.6 329.6 L 172.8 328.0 L 172.8 325.6 L 175.2 327.2 L 175.2 328.8 L 171.2 332.8 L 170.4 336.8 L 158.4 336.8 L 157.6 337.6 L 157.6 340.0 L 159.2 341.6 L 161.6 341.6 L 160.8 349.6 L 164.8 349.6 L 164.8 348.0 L 167.2 348.0 L 168.0 350.4 L 166.4 351.2 L 166.4 352.8 L 161.6 353.6 L 158.4 355.2 L 157.6 356.8 L 152.8 358.4 L 148.8 362.4 L 147.2 362.4 L 146.4 367.2 L 144.8 367.2 L 144.0 368.8 L 142.4 378.4 L 135.2 377.6 L 134.4 379.2 L 132.8 379.2 L 132.0 376.0 L 130.4 376.0 L 122.4 368.8 L 118.4 367.2 L 115.2 362.4 L 112.0 361.6 L 108.8 358.4 L 93.6 358.4 L 88.8 360.8 L 85.6 356.8 L 77.6 355.2 L 77.6 354.4 L 76.0 355.2 L 59.2 355.2 L 55.2 357.6 L 51.2 357.6 L 51.2 356.8 Z"/>
    <path d="M 42.4 368.0 L 44.8 366.4 L 45.6 364.8 L 44.8 363.2 L 47.2 362.4 L 48.8 360.0 L 56.8 360.0 L 57.6 358.4 L 60.0 358.4 L 60.0 357.6 L 80.0 357.6 L 80.0 358.4 L 84.8 359.2 L 84.8 360.8 L 87.2 363.2 L 91.2 363.2 L 94.4 360.8 L 107.2 360.8 L 110.4 362.4 L 111.2 364.0 L 112.8 364.0 L 118.4 370.4 L 120.0 370.4 L 121.6 372.8 L 123.2 372.8 L 124.0 374.4 L 125.6 374.4 L 127.2 376.8 L 128.8 376.8 L 131.2 379.2 L 129.6 381.6 L 127.2 382.4 L 126.4 385.6 L 123.2 387.2 L 122.4 388.8 L 123.2 395.2 L 120.0 401.6 L 115.2 402.4 L 113.6 404.0 L 112.8 408.0 L 110.4 408.8 L 109.6 410.4 L 110.4 412.8 L 108.8 414.4 L 105.6 416.0 L 100.8 416.0 L 100.0 417.6 L 100.8 421.6 L 94.4 426.4 L 88.8 422.4 L 87.2 417.6 L 84.0 415.2 L 83.2 407.2 L 81.6 406.4 L 81.6 404.8 L 79.2 404.0 L 79.2 402.4 L 74.4 397.6 L 72.8 397.6 L 69.6 393.6 L 65.6 392.8 L 61.6 388.0 L 58.4 387.2 L 56.0 382.4 L 52.8 380.8 L 51.2 376.8 L 48.0 375.2 L 42.4 368.8 Z"/>
    <path d="M 24.0 400.8 L 26.4 400.0 L 30.4 392.0 L 30.4 386.4 L 32.0 384.8 L 30.4 383.2 L 31.2 380.0 L 36.0 374.4 L 37.6 368.0 L 40.8 364.8 L 42.4 364.8 L 40.0 367.2 L 40.0 371.2 L 50.4 380.0 L 50.4 381.6 L 54.4 384.8 L 56.8 389.6 L 60.0 390.4 L 63.2 394.4 L 68.8 396.0 L 68.8 397.6 L 71.2 398.4 L 80.8 408.0 L 80.8 414.4 L 82.4 417.6 L 84.8 418.4 L 88.0 425.6 L 94.4 428.8 L 93.6 431.2 L 91.2 432.8 L 91.2 440.0 L 88.8 444.8 L 88.8 451.2 L 88.0 451.2 L 88.0 459.2 L 80.8 459.2 L 80.8 458.4 L 76.8 459.2 L 76.8 464.0 L 78.4 467.2 L 76.0 468.8 L 73.6 466.4 L 71.2 460.8 L 69.6 460.8 L 68.8 459.2 L 65.6 457.6 L 63.2 457.6 L 57.6 452.0 L 54.4 451.2 L 52.8 448.8 L 49.6 447.2 L 47.2 440.8 L 45.6 440.0 L 45.6 437.6 L 43.2 436.8 L 37.6 431.2 L 36.0 424.0 L 34.4 424.0 L 28.0 417.6 L 27.2 413.6 L 24.8 412.0 L 24.0 401.6 Z"/>
  </g>
  <g class="boundary-lines-delmarva" aria-hidden="true">
    <use href="#MD"/>
    <use href="#DE"/>
  </g>
</svg>